<mxfile host="app.diagrams.net" modified="2024-04-30T03:13:21.028Z" agent="Mozilla/5.0 (Windows NT 10.0; Win64; x64) AppleWebKit/537.36 (KHTML, like Gecko) Chrome/124.0.0.0 Safari/537.36" etag="9hoCYVK7yV9oIGCm-nUV" version="24.3.0" type="device">
  <diagram name="PÃ¡gina-1" id="AD2a33I4z6MFGp31U_7p">
    <mxGraphModel dx="1050" dy="583" grid="1" gridSize="10" guides="1" tooltips="1" connect="1" arrows="1" fold="1" page="1" pageScale="1" pageWidth="2000" pageHeight="2000" math="0" shadow="0">
      <root>
        <mxCell id="0" />
        <mxCell id="1" parent="0" />
        <mxCell id="LbnA1UyEUyMUkYaqLMpM-16" style="edgeStyle=orthogonalEdgeStyle;rounded=0;orthogonalLoop=1;jettySize=auto;html=1;" edge="1" parent="1" source="LbnA1UyEUyMUkYaqLMpM-1" target="LbnA1UyEUyMUkYaqLMpM-9">
          <mxGeometry relative="1" as="geometry">
            <Array as="points">
              <mxPoint x="410" y="200" />
              <mxPoint x="410" y="200" />
            </Array>
          </mxGeometry>
        </mxCell>
        <mxCell id="LbnA1UyEUyMUkYaqLMpM-17" style="edgeStyle=orthogonalEdgeStyle;rounded=0;orthogonalLoop=1;jettySize=auto;html=1;entryX=0;entryY=0.5;entryDx=0;entryDy=0;" edge="1" parent="1" source="LbnA1UyEUyMUkYaqLMpM-1" target="LbnA1UyEUyMUkYaqLMpM-10">
          <mxGeometry relative="1" as="geometry" />
        </mxCell>
        <mxCell id="LbnA1UyEUyMUkYaqLMpM-18" style="edgeStyle=orthogonalEdgeStyle;rounded=0;orthogonalLoop=1;jettySize=auto;html=1;entryX=0;entryY=0.5;entryDx=0;entryDy=0;" edge="1" parent="1" source="LbnA1UyEUyMUkYaqLMpM-1" target="LbnA1UyEUyMUkYaqLMpM-11">
          <mxGeometry relative="1" as="geometry" />
        </mxCell>
        <mxCell id="LbnA1UyEUyMUkYaqLMpM-28" style="edgeStyle=orthogonalEdgeStyle;rounded=0;orthogonalLoop=1;jettySize=auto;html=1;" edge="1" parent="1" source="LbnA1UyEUyMUkYaqLMpM-1" target="LbnA1UyEUyMUkYaqLMpM-12">
          <mxGeometry relative="1" as="geometry">
            <Array as="points">
              <mxPoint x="280" y="130" />
            </Array>
          </mxGeometry>
        </mxCell>
        <mxCell id="LbnA1UyEUyMUkYaqLMpM-1" value="1&lt;div&gt;Relevar Requerimientos&lt;/div&gt;" style="ellipse;whiteSpace=wrap;html=1;" vertex="1" parent="1">
          <mxGeometry x="220" y="160" width="120" height="80" as="geometry" />
        </mxCell>
        <mxCell id="LbnA1UyEUyMUkYaqLMpM-21" style="edgeStyle=orthogonalEdgeStyle;rounded=0;orthogonalLoop=1;jettySize=auto;html=1;" edge="1" parent="1" target="LbnA1UyEUyMUkYaqLMpM-11">
          <mxGeometry relative="1" as="geometry">
            <mxPoint x="330" y="340" as="sourcePoint" />
            <mxPoint x="497.57359312880726" y="478.2842712474617" as="targetPoint" />
            <Array as="points">
              <mxPoint x="360" y="340" />
              <mxPoint x="360" y="470" />
            </Array>
          </mxGeometry>
        </mxCell>
        <mxCell id="LbnA1UyEUyMUkYaqLMpM-8" value="2&lt;div&gt;Modelar&lt;/div&gt;&lt;div&gt;Arquitectura&lt;/div&gt;" style="ellipse;whiteSpace=wrap;html=1;" vertex="1" parent="1">
          <mxGeometry x="190" y="300" width="120" height="80" as="geometry" />
        </mxCell>
        <mxCell id="LbnA1UyEUyMUkYaqLMpM-25" style="edgeStyle=orthogonalEdgeStyle;rounded=0;orthogonalLoop=1;jettySize=auto;html=1;" edge="1" parent="1" source="LbnA1UyEUyMUkYaqLMpM-9" target="LbnA1UyEUyMUkYaqLMpM-13">
          <mxGeometry relative="1" as="geometry" />
        </mxCell>
        <mxCell id="LbnA1UyEUyMUkYaqLMpM-9" value="4&amp;nbsp;&lt;div&gt;Desarrollar Capa Presentacion&lt;/div&gt;" style="ellipse;whiteSpace=wrap;html=1;" vertex="1" parent="1">
          <mxGeometry x="460" y="150" width="120" height="80" as="geometry" />
        </mxCell>
        <mxCell id="LbnA1UyEUyMUkYaqLMpM-26" style="edgeStyle=orthogonalEdgeStyle;rounded=0;orthogonalLoop=1;jettySize=auto;html=1;" edge="1" parent="1" source="LbnA1UyEUyMUkYaqLMpM-10" target="LbnA1UyEUyMUkYaqLMpM-13">
          <mxGeometry relative="1" as="geometry" />
        </mxCell>
        <mxCell id="LbnA1UyEUyMUkYaqLMpM-10" value="5&amp;nbsp;&lt;div&gt;Desarrollar Capa Negocio&lt;/div&gt;" style="ellipse;whiteSpace=wrap;html=1;" vertex="1" parent="1">
          <mxGeometry x="460" y="260" width="120" height="80" as="geometry" />
        </mxCell>
        <mxCell id="LbnA1UyEUyMUkYaqLMpM-27" style="edgeStyle=orthogonalEdgeStyle;rounded=0;orthogonalLoop=1;jettySize=auto;html=1;" edge="1" parent="1" source="LbnA1UyEUyMUkYaqLMpM-11" target="LbnA1UyEUyMUkYaqLMpM-13">
          <mxGeometry relative="1" as="geometry" />
        </mxCell>
        <mxCell id="LbnA1UyEUyMUkYaqLMpM-11" value="6&lt;div&gt;Desarrollar Acceso Datos&lt;/div&gt;" style="ellipse;whiteSpace=wrap;html=1;" vertex="1" parent="1">
          <mxGeometry x="460" y="410" width="120" height="80" as="geometry" />
        </mxCell>
        <mxCell id="LbnA1UyEUyMUkYaqLMpM-32" style="edgeStyle=orthogonalEdgeStyle;rounded=0;orthogonalLoop=1;jettySize=auto;html=1;" edge="1" parent="1" source="LbnA1UyEUyMUkYaqLMpM-12" target="LbnA1UyEUyMUkYaqLMpM-30">
          <mxGeometry relative="1" as="geometry" />
        </mxCell>
        <mxCell id="LbnA1UyEUyMUkYaqLMpM-12" value="8&lt;div&gt;Confeccionar Manual&lt;/div&gt;&lt;div&gt;De usuario&lt;/div&gt;" style="ellipse;whiteSpace=wrap;html=1;" vertex="1" parent="1">
          <mxGeometry x="700" y="100" width="120" height="80" as="geometry" />
        </mxCell>
        <mxCell id="LbnA1UyEUyMUkYaqLMpM-31" style="edgeStyle=orthogonalEdgeStyle;rounded=0;orthogonalLoop=1;jettySize=auto;html=1;entryX=0;entryY=0.5;entryDx=0;entryDy=0;" edge="1" parent="1" source="LbnA1UyEUyMUkYaqLMpM-13" target="LbnA1UyEUyMUkYaqLMpM-30">
          <mxGeometry relative="1" as="geometry" />
        </mxCell>
        <mxCell id="LbnA1UyEUyMUkYaqLMpM-13" value="7&lt;div&gt;Realizar Pruebas&lt;/div&gt;&lt;div&gt;&lt;br&gt;&lt;/div&gt;" style="ellipse;whiteSpace=wrap;html=1;" vertex="1" parent="1">
          <mxGeometry x="680" y="260" width="120" height="80" as="geometry" />
        </mxCell>
        <mxCell id="LbnA1UyEUyMUkYaqLMpM-23" style="edgeStyle=orthogonalEdgeStyle;rounded=0;orthogonalLoop=1;jettySize=auto;html=1;" edge="1" parent="1" source="LbnA1UyEUyMUkYaqLMpM-14" target="LbnA1UyEUyMUkYaqLMpM-10">
          <mxGeometry relative="1" as="geometry">
            <Array as="points">
              <mxPoint x="250" y="400" />
              <mxPoint x="520" y="400" />
            </Array>
          </mxGeometry>
        </mxCell>
        <mxCell id="LbnA1UyEUyMUkYaqLMpM-24" style="edgeStyle=orthogonalEdgeStyle;rounded=0;orthogonalLoop=1;jettySize=auto;html=1;" edge="1" parent="1" source="LbnA1UyEUyMUkYaqLMpM-14" target="LbnA1UyEUyMUkYaqLMpM-9">
          <mxGeometry relative="1" as="geometry">
            <Array as="points">
              <mxPoint x="340" y="470" />
              <mxPoint x="340" y="250" />
              <mxPoint x="520" y="250" />
            </Array>
          </mxGeometry>
        </mxCell>
        <mxCell id="LbnA1UyEUyMUkYaqLMpM-14" value="3&lt;div&gt;Modelar interfaces&lt;/div&gt;&lt;div&gt;graficas&lt;/div&gt;" style="ellipse;whiteSpace=wrap;html=1;" vertex="1" parent="1">
          <mxGeometry x="190" y="430" width="120" height="80" as="geometry" />
        </mxCell>
        <mxCell id="LbnA1UyEUyMUkYaqLMpM-19" style="edgeStyle=orthogonalEdgeStyle;rounded=0;orthogonalLoop=1;jettySize=auto;html=1;" edge="1" parent="1" source="LbnA1UyEUyMUkYaqLMpM-8">
          <mxGeometry relative="1" as="geometry">
            <mxPoint x="470" y="320" as="targetPoint" />
            <Array as="points">
              <mxPoint x="470" y="340" />
            </Array>
          </mxGeometry>
        </mxCell>
        <mxCell id="LbnA1UyEUyMUkYaqLMpM-20" style="edgeStyle=orthogonalEdgeStyle;rounded=0;orthogonalLoop=1;jettySize=auto;html=1;entryX=0.003;entryY=0.362;entryDx=0;entryDy=0;entryPerimeter=0;" edge="1" parent="1" source="LbnA1UyEUyMUkYaqLMpM-8" target="LbnA1UyEUyMUkYaqLMpM-9">
          <mxGeometry relative="1" as="geometry">
            <Array as="points">
              <mxPoint x="360" y="340" />
              <mxPoint x="360" y="179" />
            </Array>
          </mxGeometry>
        </mxCell>
        <mxCell id="LbnA1UyEUyMUkYaqLMpM-22" style="edgeStyle=orthogonalEdgeStyle;rounded=0;orthogonalLoop=1;jettySize=auto;html=1;entryX=0.277;entryY=0.922;entryDx=0;entryDy=0;entryPerimeter=0;" edge="1" parent="1" source="LbnA1UyEUyMUkYaqLMpM-14" target="LbnA1UyEUyMUkYaqLMpM-11">
          <mxGeometry relative="1" as="geometry">
            <Array as="points">
              <mxPoint x="385" y="490" />
              <mxPoint x="385" y="484" />
            </Array>
          </mxGeometry>
        </mxCell>
        <mxCell id="LbnA1UyEUyMUkYaqLMpM-33" style="edgeStyle=orthogonalEdgeStyle;rounded=0;orthogonalLoop=1;jettySize=auto;html=1;entryX=0;entryY=0.5;entryDx=0;entryDy=0;" edge="1" parent="1" source="LbnA1UyEUyMUkYaqLMpM-29" target="LbnA1UyEUyMUkYaqLMpM-1">
          <mxGeometry relative="1" as="geometry" />
        </mxCell>
        <mxCell id="LbnA1UyEUyMUkYaqLMpM-34" style="edgeStyle=orthogonalEdgeStyle;rounded=0;orthogonalLoop=1;jettySize=auto;html=1;" edge="1" parent="1" source="LbnA1UyEUyMUkYaqLMpM-29" target="LbnA1UyEUyMUkYaqLMpM-8">
          <mxGeometry relative="1" as="geometry" />
        </mxCell>
        <mxCell id="LbnA1UyEUyMUkYaqLMpM-35" style="edgeStyle=orthogonalEdgeStyle;rounded=0;orthogonalLoop=1;jettySize=auto;html=1;entryX=0;entryY=0.5;entryDx=0;entryDy=0;" edge="1" parent="1" source="LbnA1UyEUyMUkYaqLMpM-29" target="LbnA1UyEUyMUkYaqLMpM-14">
          <mxGeometry relative="1" as="geometry" />
        </mxCell>
        <mxCell id="LbnA1UyEUyMUkYaqLMpM-29" value="INICIO" style="ellipse;whiteSpace=wrap;html=1;" vertex="1" parent="1">
          <mxGeometry x="20" y="250" width="120" height="80" as="geometry" />
        </mxCell>
        <mxCell id="LbnA1UyEUyMUkYaqLMpM-30" value="FIN" style="ellipse;whiteSpace=wrap;html=1;" vertex="1" parent="1">
          <mxGeometry x="910" y="260" width="120" height="80" as="geometry" />
        </mxCell>
      </root>
    </mxGraphModel>
  </diagram>
</mxfile>
